# xmcd
#
# Track frame offsets: 
#        150
#        19187
#        36400
#        55442
#        74992
#        90450
#        112537
#        164555
#
# Disc length: 2466 seconds
#
# Revision: 1
# Processed by: cddbd v1.5.2PL0 Copyright (c) Steve Scherf et al.
# Submitted via: ExactAudioCopy v0.99pb4
#
DISCID=6c09a008
DTITLE=Mighty Joe Young - Live At The Wise Fools Pub
DYEAR=1990
DGENRE=Blues
TTITLE0=Crusin Down Highway 99
TTITLE1=Thats All Right
TTITLE2=Whole Lotta Lovin
TTITLE3=I Cant Quit You Babe
TTITLE4=Baby Please
TTITLE5=Stormy Monday
TTITLE6=Turning Point
TTITLE7=Wise Fools Express
EXTD=YEAR: 1990
EXTT0=
EXTT1=
EXTT2=
EXTT3=
EXTT4=
EXTT5=
EXTT6=
EXTT7=
PLAYORDER=
